# xmcd
#
# Track frame offsets:
#	150
#	18233
#	39106
#	58027
#	81987
#	99946
#	122266
#	140053
#	159176
#	184463
#
# Disc length: 2651 seconds
#
# Revision: 1
# Processed by: cddbd v1.5.2PL0 Copyright (c) Steve Scherf et al.
# Submitted via: audiograbber 1.83.01
#
DISCID=750a590a
DTITLE=Macy Gray - On How Life Is
DYEAR=1999
DGENRE=Pop
TTITLE0=Why Didn't You Call Me
TTITLE1=Do Something
TTITLE2=Caligula
TTITLE3=I Try
TTITLE4=Sexomatic
TTITLE5=I Can't Wait To Meetchu
TTITLE6=Still
TTITLE7=I've Committed Murder
TTITLE8=Moment To Myself, A
TTITLE9=Letter, The
EXTD=
EXTT0=
EXTT1=
EXTT2=
EXTT3=
EXTT4=
EXTT5=
EXTT6=
EXTT7=
EXTT8=
EXTT9=
PLAYORDER=
